<mxfile host="65bd71144e">
    <diagram id="9SHzSb6AhvQadtVLbn-r" name="PÃ¡gina-1">
        <mxGraphModel dx="513" dy="617" grid="1" gridSize="10" guides="1" tooltips="1" connect="1" arrows="1" fold="1" page="1" pageScale="1" pageWidth="827" pageHeight="1169" math="0" shadow="0">
            <root>
                <mxCell id="0"/>
                <mxCell id="1" parent="0"/>
                <mxCell id="2" value="Estadios" style="rounded=0;whiteSpace=wrap;html=1;" parent="1" vertex="1">
                    <mxGeometry x="354" y="310" width="120" height="60" as="geometry"/>
                </mxCell>
                <mxCell id="3" value="Partidos" style="rounded=0;whiteSpace=wrap;html=1;" parent="1" vertex="1">
                    <mxGeometry x="680" y="130" width="120" height="60" as="geometry"/>
                </mxCell>
                <mxCell id="4" value="Equipos" style="rounded=0;whiteSpace=wrap;html=1;" parent="1" vertex="1">
                    <mxGeometry x="90" y="140" width="120" height="60" as="geometry"/>
                </mxCell>
                <mxCell id="5" value="&lt;u&gt;nombre&lt;/u&gt;" style="ellipse;whiteSpace=wrap;html=1;" parent="1" vertex="1">
                    <mxGeometry x="210" y="50" width="90" height="40" as="geometry"/>
                </mxCell>
                <mxCell id="6" value="estadio sede" style="ellipse;whiteSpace=wrap;html=1;" parent="1" vertex="1">
                    <mxGeometry x="110" y="250" width="80" height="50" as="geometry"/>
                </mxCell>
                <mxCell id="7" value="" style="endArrow=none;html=1;" parent="1" source="6" target="4" edge="1">
                    <mxGeometry width="50" height="50" relative="1" as="geometry">
                        <mxPoint x="230" y="190" as="sourcePoint"/>
                        <mxPoint x="280" y="140" as="targetPoint"/>
                    </mxGeometry>
                </mxCell>
                <mxCell id="8" value="" style="endArrow=none;html=1;entryX=0.5;entryY=1;entryDx=0;entryDy=0;exitX=1;exitY=0;exitDx=0;exitDy=0;" parent="1" source="4" target="5" edge="1">
                    <mxGeometry width="50" height="50" relative="1" as="geometry">
                        <mxPoint x="230" y="190" as="sourcePoint"/>
                        <mxPoint x="280" y="140" as="targetPoint"/>
                    </mxGeometry>
                </mxCell>
                <mxCell id="9" value="&lt;u&gt;nombre&lt;/u&gt;" style="ellipse;whiteSpace=wrap;html=1;" parent="1" vertex="1">
                    <mxGeometry x="345" y="120" width="90" height="50" as="geometry"/>
                </mxCell>
                <mxCell id="10" value="capacidad" style="ellipse;whiteSpace=wrap;html=1;" parent="1" vertex="1">
                    <mxGeometry x="534" y="330" width="106" height="50" as="geometry"/>
                </mxCell>
                <mxCell id="11" value="ciudad" style="ellipse;whiteSpace=wrap;html=1;" parent="1" vertex="1">
                    <mxGeometry x="354" y="460" width="90" height="60" as="geometry"/>
                </mxCell>
                <mxCell id="12" value="" style="endArrow=none;html=1;entryX=0;entryY=0.5;entryDx=0;entryDy=0;exitX=1;exitY=0.75;exitDx=0;exitDy=0;" parent="1" source="2" target="10" edge="1">
                    <mxGeometry width="50" height="50" relative="1" as="geometry">
                        <mxPoint x="390" y="220" as="sourcePoint"/>
                        <mxPoint x="440" y="170" as="targetPoint"/>
                    </mxGeometry>
                </mxCell>
                <mxCell id="15" value="" style="endArrow=none;html=1;entryX=0.5;entryY=0;entryDx=0;entryDy=0;exitX=0.5;exitY=1;exitDx=0;exitDy=0;" parent="1" source="2" target="11" edge="1">
                    <mxGeometry width="50" height="50" relative="1" as="geometry">
                        <mxPoint x="300" y="200" as="sourcePoint"/>
                        <mxPoint x="350" y="150" as="targetPoint"/>
                    </mxGeometry>
                </mxCell>
                <mxCell id="19" value="" style="endArrow=none;html=1;entryX=0.5;entryY=1;entryDx=0;entryDy=0;exitX=0.5;exitY=0;exitDx=0;exitDy=0;" parent="1" source="2" target="9" edge="1">
                    <mxGeometry width="50" height="50" relative="1" as="geometry">
                        <mxPoint x="300" y="200" as="sourcePoint"/>
                        <mxPoint x="350" y="150" as="targetPoint"/>
                    </mxGeometry>
                </mxCell>
                <mxCell id="20" value="resultado" style="ellipse;whiteSpace=wrap;html=1;" parent="1" vertex="1">
                    <mxGeometry x="620" y="20" width="80" height="50" as="geometry"/>
                </mxCell>
                <mxCell id="21" value="equipo invitado" style="ellipse;whiteSpace=wrap;html=1;" parent="1" vertex="1">
                    <mxGeometry x="750" width="90" height="60" as="geometry"/>
                </mxCell>
                <mxCell id="22" value="equipo local" style="ellipse;whiteSpace=wrap;html=1;" parent="1" vertex="1">
                    <mxGeometry x="760" y="230" width="90" height="60" as="geometry"/>
                </mxCell>
                <mxCell id="23" value="estadio" style="ellipse;whiteSpace=wrap;html=1;" parent="1" vertex="1">
                    <mxGeometry x="650" y="240" width="80" height="50" as="geometry"/>
                </mxCell>
                <mxCell id="24" value="" style="endArrow=none;html=1;" parent="1" source="23" edge="1">
                    <mxGeometry width="50" height="50" relative="1" as="geometry">
                        <mxPoint x="650" y="240" as="sourcePoint"/>
                        <mxPoint x="700" y="190" as="targetPoint"/>
                    </mxGeometry>
                </mxCell>
                <mxCell id="26" value="" style="endArrow=none;html=1;entryX=0.5;entryY=1;entryDx=0;entryDy=0;" parent="1" source="3" target="20" edge="1">
                    <mxGeometry width="50" height="50" relative="1" as="geometry">
                        <mxPoint x="380" y="200" as="sourcePoint"/>
                        <mxPoint x="430" y="150" as="targetPoint"/>
                    </mxGeometry>
                </mxCell>
                <mxCell id="27" value="" style="endArrow=none;html=1;entryX=0;entryY=1;entryDx=0;entryDy=0;exitX=0.75;exitY=0;exitDx=0;exitDy=0;" parent="1" source="3" target="21" edge="1">
                    <mxGeometry width="50" height="50" relative="1" as="geometry">
                        <mxPoint x="795" y="120" as="sourcePoint"/>
                        <mxPoint x="430" y="150" as="targetPoint"/>
                    </mxGeometry>
                </mxCell>
                <mxCell id="28" value="" style="endArrow=none;html=1;entryX=0;entryY=0.5;entryDx=0;entryDy=0;exitX=0.75;exitY=1;exitDx=0;exitDy=0;" parent="1" source="3" target="22" edge="1">
                    <mxGeometry width="50" height="50" relative="1" as="geometry">
                        <mxPoint x="380" y="200" as="sourcePoint"/>
                        <mxPoint x="430" y="150" as="targetPoint"/>
                    </mxGeometry>
                </mxCell>
                <mxCell id="29" value="" style="endArrow=none;html=1;exitX=1;exitY=0;exitDx=0;exitDy=0;" parent="1" source="2" target="30" edge="1">
                    <mxGeometry width="50" height="50" relative="1" as="geometry">
                        <mxPoint x="390" y="190" as="sourcePoint"/>
                        <mxPoint x="430" y="150" as="targetPoint"/>
                    </mxGeometry>
                </mxCell>
                <mxCell id="30" value="celebren" style="rhombus;whiteSpace=wrap;html=1;" parent="1" vertex="1">
                    <mxGeometry x="550" y="170" width="70" height="60" as="geometry"/>
                </mxCell>
                <mxCell id="31" value="" style="endArrow=none;html=1;exitX=0;exitY=0.5;exitDx=0;exitDy=0;entryX=1;entryY=0.5;entryDx=0;entryDy=0;" parent="1" source="3" target="30" edge="1">
                    <mxGeometry width="50" height="50" relative="1" as="geometry">
                        <mxPoint x="390" y="200" as="sourcePoint"/>
                        <mxPoint x="440" y="150" as="targetPoint"/>
                    </mxGeometry>
                </mxCell>
                <mxCell id="32" value="juegan en" style="rhombus;whiteSpace=wrap;html=1;" parent="1" vertex="1">
                    <mxGeometry x="210" y="280" width="90" height="50" as="geometry"/>
                </mxCell>
                <mxCell id="33" value="" style="endArrow=none;html=1;entryX=1;entryY=1;entryDx=0;entryDy=0;exitX=0;exitY=0.5;exitDx=0;exitDy=0;" parent="1" source="32" target="4" edge="1">
                    <mxGeometry width="50" height="50" relative="1" as="geometry">
                        <mxPoint x="390" y="200" as="sourcePoint"/>
                        <mxPoint x="440" y="150" as="targetPoint"/>
                    </mxGeometry>
                </mxCell>
                <mxCell id="34" value="" style="endArrow=none;html=1;entryX=0;entryY=0.5;entryDx=0;entryDy=0;exitX=1;exitY=0.5;exitDx=0;exitDy=0;" parent="1" source="32" target="2" edge="1">
                    <mxGeometry width="50" height="50" relative="1" as="geometry">
                        <mxPoint x="390" y="200" as="sourcePoint"/>
                        <mxPoint x="440" y="150" as="targetPoint"/>
                    </mxGeometry>
                </mxCell>
                <mxCell id="35" value="" style="endArrow=none;html=1;exitX=1;exitY=0.5;exitDx=0;exitDy=0;" parent="1" source="4" edge="1">
                    <mxGeometry width="50" height="50" relative="1" as="geometry">
                        <mxPoint x="430" y="100" as="sourcePoint"/>
                        <mxPoint x="480" y="50" as="targetPoint"/>
                    </mxGeometry>
                </mxCell>
                <mxCell id="36" value="juegan" style="rhombus;whiteSpace=wrap;html=1;" parent="1" vertex="1">
                    <mxGeometry x="470" y="10" width="80" height="80" as="geometry"/>
                </mxCell>
                <mxCell id="37" value="" style="endArrow=none;html=1;exitX=1;exitY=0.5;exitDx=0;exitDy=0;entryX=0;entryY=0;entryDx=0;entryDy=0;" parent="1" source="36" target="3" edge="1">
                    <mxGeometry width="50" height="50" relative="1" as="geometry">
                        <mxPoint x="600" y="200" as="sourcePoint"/>
                        <mxPoint x="650" y="150" as="targetPoint"/>
                    </mxGeometry>
                </mxCell>
                <mxCell id="39" value="N" style="text;html=1;align=center;verticalAlign=middle;resizable=0;points=[];autosize=1;strokeColor=none;fillColor=none;" parent="1" vertex="1">
                    <mxGeometry x="220" y="230" width="20" height="20" as="geometry"/>
                </mxCell>
                <mxCell id="40" value="N" style="text;html=1;align=center;verticalAlign=middle;resizable=0;points=[];autosize=1;strokeColor=none;fillColor=none;" parent="1" vertex="1">
                    <mxGeometry x="310" y="90" width="20" height="20" as="geometry"/>
                </mxCell>
                <mxCell id="41" value="N" style="text;html=1;align=center;verticalAlign=middle;resizable=0;points=[];autosize=1;strokeColor=none;fillColor=none;" parent="1" vertex="1">
                    <mxGeometry x="590" y="60" width="20" height="20" as="geometry"/>
                </mxCell>
                <mxCell id="42" value="1" style="text;html=1;align=center;verticalAlign=middle;resizable=0;points=[];autosize=1;strokeColor=none;fillColor=none;" parent="1" vertex="1">
                    <mxGeometry x="320" y="300" width="20" height="20" as="geometry"/>
                </mxCell>
                <mxCell id="43" value="N" style="text;html=1;align=center;verticalAlign=middle;resizable=0;points=[];autosize=1;strokeColor=none;fillColor=none;" parent="1" vertex="1">
                    <mxGeometry x="640" y="170" width="20" height="20" as="geometry"/>
                </mxCell>
                <mxCell id="44" value="Jugadores" style="rounded=0;whiteSpace=wrap;html=1;" vertex="1" parent="1">
                    <mxGeometry x="30" y="430" width="120" height="60" as="geometry"/>
                </mxCell>
                <mxCell id="45" value="" style="endArrow=none;html=1;entryX=0;entryY=1;entryDx=0;entryDy=0;" edge="1" parent="1" target="4">
                    <mxGeometry width="50" height="50" relative="1" as="geometry">
                        <mxPoint x="60" y="280" as="sourcePoint"/>
                        <mxPoint x="150" y="320" as="targetPoint"/>
                    </mxGeometry>
                </mxCell>
                <mxCell id="47" value="tienen" style="rhombus;whiteSpace=wrap;html=1;" vertex="1" parent="1">
                    <mxGeometry x="20" y="280" width="80" height="60" as="geometry"/>
                </mxCell>
                <mxCell id="48" value="" style="endArrow=none;html=1;exitX=0.5;exitY=0;exitDx=0;exitDy=0;entryX=0.5;entryY=1;entryDx=0;entryDy=0;" edge="1" parent="1" source="44" target="47">
                    <mxGeometry width="50" height="50" relative="1" as="geometry">
                        <mxPoint x="100" y="370" as="sourcePoint"/>
                        <mxPoint x="150" y="320" as="targetPoint"/>
                    </mxGeometry>
                </mxCell>
                <mxCell id="49" value="POSICIÃN&lt;br&gt;1-delantero&lt;br&gt;2-defensa&lt;br&gt;3-centro campista&lt;br&gt;4.portero" style="ellipse;whiteSpace=wrap;html=1;" vertex="1" parent="1">
                    <mxGeometry x="140" y="510" width="150" height="110" as="geometry"/>
                </mxCell>
                <mxCell id="50" value="" style="endArrow=none;html=1;exitX=0;exitY=0;exitDx=0;exitDy=0;entryX=0.5;entryY=1;entryDx=0;entryDy=0;" edge="1" parent="1" source="49" target="44">
                    <mxGeometry width="50" height="50" relative="1" as="geometry">
                        <mxPoint x="100" y="370" as="sourcePoint"/>
                        <mxPoint x="150" y="320" as="targetPoint"/>
                    </mxGeometry>
                </mxCell>
                <mxCell id="51" value="&lt;u&gt;Nombre Jugador&lt;/u&gt;" style="ellipse;whiteSpace=wrap;html=1;" vertex="1" parent="1">
                    <mxGeometry x="180" y="400" width="100" height="60" as="geometry"/>
                </mxCell>
                <mxCell id="52" value="Nombre Equipo" style="ellipse;whiteSpace=wrap;html=1;" vertex="1" parent="1">
                    <mxGeometry x="90" y="350" width="90" height="50" as="geometry"/>
                </mxCell>
                <mxCell id="53" value="" style="endArrow=none;html=1;entryX=0.5;entryY=0;entryDx=0;entryDy=0;exitX=0.232;exitY=0.974;exitDx=0;exitDy=0;exitPerimeter=0;" edge="1" parent="1" source="52" target="44">
                    <mxGeometry width="50" height="50" relative="1" as="geometry">
                        <mxPoint x="100" y="370" as="sourcePoint"/>
                        <mxPoint x="150" y="320" as="targetPoint"/>
                    </mxGeometry>
                </mxCell>
                <mxCell id="54" value="" style="endArrow=none;html=1;entryX=0.033;entryY=0.686;entryDx=0;entryDy=0;entryPerimeter=0;" edge="1" parent="1" source="44" target="51">
                    <mxGeometry width="50" height="50" relative="1" as="geometry">
                        <mxPoint x="100" y="370" as="sourcePoint"/>
                        <mxPoint x="150" y="320" as="targetPoint"/>
                    </mxGeometry>
                </mxCell>
                <mxCell id="56" value="1" style="text;html=1;align=center;verticalAlign=middle;resizable=0;points=[];autosize=1;strokeColor=none;fillColor=none;" vertex="1" parent="1">
                    <mxGeometry x="80" y="230" width="20" height="20" as="geometry"/>
                </mxCell>
                <mxCell id="57" value="N" style="text;html=1;align=center;verticalAlign=middle;resizable=0;points=[];autosize=1;strokeColor=none;fillColor=none;" vertex="1" parent="1">
                    <mxGeometry x="70" y="370" width="20" height="20" as="geometry"/>
                </mxCell>
                <mxCell id="58" value="1" style="text;html=1;align=center;verticalAlign=middle;resizable=0;points=[];autosize=1;strokeColor=none;fillColor=none;" vertex="1" parent="1">
                    <mxGeometry x="500" y="280" width="20" height="20" as="geometry"/>
                </mxCell>
                <mxCell id="59" value="&lt;u&gt;ID-PARTIDO&lt;/u&gt;" style="ellipse;whiteSpace=wrap;html=1;" vertex="1" parent="1">
                    <mxGeometry x="840" y="110" width="90" height="60" as="geometry"/>
                </mxCell>
                <mxCell id="60" value="" style="endArrow=none;html=1;entryX=0;entryY=0.645;entryDx=0;entryDy=0;entryPerimeter=0;exitX=1;exitY=0.5;exitDx=0;exitDy=0;" edge="1" parent="1" source="3" target="59">
                    <mxGeometry width="50" height="50" relative="1" as="geometry">
                        <mxPoint x="800" y="340" as="sourcePoint"/>
                        <mxPoint x="850" y="290" as="targetPoint"/>
                    </mxGeometry>
                </mxCell>
                <mxCell id="61" value="" style="curved=1;endArrow=classic;html=1;fillColor=#0050ef;strokeColor=#001DBC;" edge="1" parent="1" source="9" target="23">
                    <mxGeometry width="50" height="50" relative="1" as="geometry">
                        <mxPoint x="800" y="340" as="sourcePoint"/>
                        <mxPoint x="850" y="290" as="targetPoint"/>
                        <Array as="points">
                            <mxPoint x="570" y="320"/>
                            <mxPoint x="710" y="330"/>
                            <mxPoint x="800" y="290"/>
                        </Array>
                    </mxGeometry>
                </mxCell>
                <mxCell id="63" value="" style="curved=1;endArrow=classic;html=1;fillColor=#0050ef;strokeColor=#001DBC;" edge="1" parent="1" source="52" target="5">
                    <mxGeometry width="50" height="50" relative="1" as="geometry">
                        <mxPoint x="200" y="340" as="sourcePoint"/>
                        <mxPoint x="250" y="290" as="targetPoint"/>
                        <Array as="points">
                            <mxPoint y="160"/>
                            <mxPoint x="200" y="290"/>
                        </Array>
                    </mxGeometry>
                </mxCell>
                <mxCell id="64" value="" style="curved=1;endArrow=classic;html=1;exitX=1;exitY=1;exitDx=0;exitDy=0;fillColor=#0050ef;strokeColor=#001DBC;" edge="1" parent="1" source="6" target="9">
                    <mxGeometry width="50" height="50" relative="1" as="geometry">
                        <mxPoint x="290" y="340" as="sourcePoint"/>
                        <mxPoint x="340" y="290" as="targetPoint"/>
                        <Array as="points">
                            <mxPoint x="340" y="340"/>
                            <mxPoint x="400" y="240"/>
                            <mxPoint x="290" y="290"/>
                        </Array>
                    </mxGeometry>
                </mxCell>
            </root>
        </mxGraphModel>
    </diagram>
</mxfile>